<?xml version="1.0" standalone="no"?>
<!DOCTYPE svg PUBLIC "-//W3C//DTD SVG 20010904//EN"
 "http://www.w3.org/TR/2001/REC-SVG-20010904/DTD/svg10.dtd">
<svg version="1.0" xmlns="http://www.w3.org/2000/svg"
 width="1000.000000pt" height="1000.000000pt" viewBox="0 0 1000.000000 1000.000000"
 preserveAspectRatio="xMidYMid meet">
<metadata>
Created by potrace 1.14, written by Peter Selinger 2001-2017
</metadata>
<g transform="translate(0.000000,1000.000000) scale(0.100000,-0.100000)"
fill="#000000" stroke="none">
<path d="M2064 9968 c-47 -52 -137 -166 -190 -243 -129 -186 -176 -262 -248
-400 -25 -47 -25 -131 -1 -210 9 -31 11 -53 5 -59 -5 -5 -76 -13 -158 -17
-146 -7 -418 -41 -477 -58 -43 -13 -2 -14 64 -1 167 31 583 60 595 41 4 -6 11
-11 16 -11 4 0 -3 33 -17 73 -26 72 -33 138 -21 189 9 38 110 235 127 248 4 3
21 29 39 58 37 60 216 302 258 347 66 72 68 75 53 75 -8 0 -28 -15 -45 -32z"/>
<path d="M2207 9993 c-11 -18 -29 -95 -46 -198 -20 -116 -38 -527 -22 -490 13
29 165 176 238 230 34 25 69 45 79 43 12 -2 29 21 61 82 68 128 118 170 328
282 60 32 102 58 92 58 -27 0 -238 -114 -308 -167 -60 -45 -97 -92 -130 -164
-17 -36 -26 -45 -105 -97 -53 -35 -116 -86 -170 -139 -73 -72 -78 -65 -71 90
5 119 33 321 57 402 4 17 11 40 15 53 6 20 -8 32 -18 15z"/>
<path d="M5015 9985 c52 -19 70 -18 26 0 -18 8 -41 15 -50 15 -9 -1 2 -7 24
-15z"/>
<path d="M8005 9991 c-6 -5 -27 -14 -48 -21 -56 -18 -39 -23 19 -6 27 8 65 19
84 24 l35 10 -40 1 c-23 1 -45 -3 -50 -8z"/>
<path d="M8290 9995 c0 -3 7 -19 15 -35 8 -16 18 -57 22 -90 5 -52 8 -60 24
-55 11 4 38 -6 67 -22 267 -155 373 -222 552 -351 56 -41 104 -71 108 -68 3 4
-1 13 -9 20 -25 24 -192 141 -244 171 -27 16 -64 39 -81 52 -17 13 -34 23 -38
23 -3 0 -24 12 -46 26 -22 14 -52 34 -69 43 -16 9 -77 45 -135 80 -99 60 -107
67 -117 105 -13 55 -30 95 -40 102 -5 3 -9 2 -9 -1z"/>
<path d="M5085 9962 c6 -5 24 -12 40 -16 34 -7 15 7 -25 19 -16 5 -22 4 -15
-3z"/>
<path d="M5191 9920 c29 -17 264 -79 434 -114 190 -39 437 -92 475 -101 18 -5
21 -4 10 3 -25 16 -236 68 -370 92 -255 44 -284 51 -446 99 -104 32 -131 37
-103 21z"/>
<path d="M3720 9886 c-19 -13 -53 -41 -75 -61 -22 -20 -31 -31 -20 -24 11 8
22 17 25 20 3 3 26 20 52 37 26 18 50 37 53 42 8 14 5 12 -35 -14z"/>
<path d="M7590 9880 c-34 -7 -34 -7 -5 -8 17 0 41 4 55 8 33 11 0 11 -50 0z"/>
<path d="M7458 9853 c7 -3 16 -2 19 1 4 3 -2 6 -13 5 -11 0 -14 -3 -6 -6z"/>
<path d="M7373 9843 c9 -2 25 -2 35 0 9 3 1 5 -18 5 -19 0 -27 -2 -17 -5z"/>
<path d="M7318 9833 c7 -3 16 -2 19 1 4 3 -2 6 -13 5 -11 0 -14 -3 -6 -6z"/>
<path d="M7135 9818 c-33 -5 -125 -21 -205 -35 -80 -14 -160 -28 -177 -30 -18
-3 -33 -8 -33 -12 0 -4 -15 -8 -32 -9 -18 -1 -51 -9 -73 -18 -72 -29 -79 -32
-150 -58 l-70 -25 -130 34 c-71 18 -131 32 -133 30 -2 -2 50 -20 115 -40 65
-20 147 -50 181 -66 67 -32 95 -34 43 -3 -17 10 -31 24 -31 30 0 17 104 58
245 98 152 42 255 62 518 96 48 7 87 14 87 16 0 7 -91 2 -155 -8z"/>
<path d="M3565 9760 c-3 -6 1 -7 9 -4 18 7 21 14 7 14 -6 0 -13 -4 -16 -10z"/>
<path d="M3336 9743 c-6 -14 -5 -15 5 -6 7 7 10 15 7 18 -3 3 -9 -2 -12 -12z"/>
<path d="M3294 9654 c-18 -56 -60 -149 -77 -170 -27 -35 -8 -29 38 11 32 28
37 36 25 44 -12 8 -11 18 9 66 13 31 21 59 17 62 -3 3 -8 -3 -12 -13z"/>
<path d="M8342 9625 c0 -16 2 -22 5 -12 2 9 2 23 0 30 -3 6 -5 -1 -5 -18z"/>
<path d="M7967 9520 c-62 -124 -133 -195 -288 -284 -25 -14 -53 -26 -62 -26
-8 0 -17 -4 -19 -8 -1 -4 -20 -18 -40 -30 -48 -30 -154 -112 -143 -112 4 0 26
14 49 30 61 46 110 76 184 116 119 64 208 128 252 179 43 49 115 186 108 204
-1 5 -20 -26 -41 -69z"/>
<path d="M3325 9565 c-17 -13 -25 -24 -19 -25 13 0 59 38 53 45 -3 2 -18 -7
-34 -20z"/>
<path d="M8332 9540 c0 -14 2 -19 5 -12 2 6 2 18 0 25 -3 6 -5 1 -5 -13z"/>
<path d="M6530 9546 c0 -2 7 -7 16 -10 8 -3 12 -2 9 4 -6 10 -25 14 -25 6z"/>
<path d="M6600 9515 c0 -2 30 -21 68 -41 37 -21 83 -49 102 -64 49 -36 150
-101 150 -96 0 8 -143 110 -222 157 -76 46 -98 56 -98 44z"/>
<path d="M9150 9316 c26 -25 70 -43 70 -29 0 11 -63 53 -80 53 -10 0 -6 -8 10
-24z"/>
<path d="M6980 9266 c0 -2 14 -14 30 -26 17 -12 30 -19 30 -16 0 2 -13 14 -30
26 -16 12 -30 19 -30 16z"/>
<path d="M8300 9263 c-1 -5 -3 -80 -6 -168 -26 -875 -24 -856 -74 -1015 -33
-106 -133 -280 -161 -280 -7 0 -55 80 -132 220 -17 30 -33 57 -36 60 -3 3 -39
73 -80 155 -41 83 -87 177 -103 210 -29 59 -78 120 -78 99 0 -6 8 -22 19 -35
10 -13 50 -87 90 -164 93 -184 145 -281 308 -571 40 -72 73 -135 73 -138 0 -4
12 -33 26 -64 94 -203 196 -558 239 -827 9 -55 20 -120 25 -145 15 -76 22
-160 13 -160 -5 0 -31 29 -57 65 -186 253 -477 538 -646 632 -36 20 -87 52
-115 72 -32 23 6 -20 105 -119 220 -219 398 -446 506 -647 25 -47 26 -50 19
-193 -3 -80 -13 -201 -22 -270 -11 -89 -16 -242 -19 -535 -3 -446 -10 -544
-48 -662 -33 -105 -47 -138 -118 -278 -82 -162 -253 -425 -276 -425 -4 0 -8
71 -8 158 -1 171 -15 295 -46 412 -30 114 -126 396 -152 448 -13 26 -29 72
-36 102 -16 65 -39 123 -40 97 0 -10 14 -85 30 -168 22 -108 32 -194 37 -305
7 -174 -1 -193 -43 -96 -61 141 -184 327 -308 461 -64 70 -129 134 -157 156
-45 36 -88 65 -95 65 -3 0 -18 8 -32 19 -70 48 -218 118 -379 177 -97 35 -179
66 -182 69 -24 24 109 54 245 55 139 0 384 -39 467 -75 12 -5 17 -3 17 8 0 28
-224 188 -360 257 -136 68 -233 97 -485 141 -166 29 -171 28 -227 -32 -27 -29
-56 -64 -64 -79 -9 -15 -25 -32 -36 -39 -19 -12 -27 -6 -90 56 -38 37 -111
115 -162 173 -154 177 -176 206 -347 460 -39 58 -68 94 -64 80 10 -34 38 -82
139 -235 48 -71 93 -151 100 -176 8 -25 25 -70 39 -100 13 -30 35 -79 47 -109
109 -260 313 -561 556 -822 24 -26 44 -49 44 -52 0 -9 -57 -7 -82 3 -13 5 -57
19 -98 31 -306 90 -831 329 -914 416 -95 100 -302 486 -391 730 -66 181 -85
237 -86 258 -1 25 -37 107 -38 86 -2 -58 95 -345 186 -550 81 -183 79 -179 98
-260 16 -71 68 -251 85 -295 4 -11 25 -65 46 -120 114 -301 371 -730 517 -865
72 -67 24 -73 -138 -17 -209 71 -450 208 -605 342 -236 206 -424 406 -492 522
-54 92 -81 173 -139 418 -49 212 -76 423 -89 714 -5 112 -11 206 -14 208 -13
13 -17 -191 -7 -327 29 -370 47 -477 141 -830 21 -78 71 -183 124 -260 28 -42
31 -53 37 -160 17 -281 120 -674 223 -850 12 -19 30 -52 40 -72 19 -38 36 -50
36 -25 0 6 -12 30 -25 52 -14 22 -25 47 -25 56 0 9 38 36 98 69 94 52 161 93
305 188 60 39 71 43 93 33 29 -13 30 -30 4 -81 -24 -47 -25 -70 -5 -70 22 0
84 42 90 62 13 37 28 37 142 3 113 -35 200 -54 283 -62 l45 -5 -50 49 c-115
111 -234 271 -220 294 19 29 330 213 349 206 7 -3 18 -33 25 -66 7 -34 14 -61
16 -61 2 0 1 35 -2 78 l-6 79 44 24 c78 43 153 72 183 70 52 -3 241 -60 253
-77 15 -21 -7 -85 -53 -150 -19 -27 -55 -80 -81 -119 -64 -98 -141 -175 -173
-175 -45 0 -97 72 -141 195 -21 60 -23 36 -4 -60 29 -149 56 -250 80 -302 14
-31 25 -59 25 -64 0 -17 64 -114 99 -152 46 -49 80 -67 128 -67 93 0 132 50
197 250 59 183 70 374 29 522 -14 50 -15 63 -4 81 12 18 10 23 -13 40 -27 19
-34 37 -16 37 6 0 34 -16 63 -35 134 -89 142 -100 153 -206 4 -46 2 -87 -10
-137 -18 -80 -20 -111 -7 -97 14 16 123 365 119 383 -2 9 -66 59 -143 111
-143 96 -316 181 -366 181 -28 0 -79 43 -79 65 1 5 18 24 40 40 21 17 83 65
139 108 55 42 110 77 122 77 59 0 467 -169 597 -247 136 -81 140 -90 112 -218
-5 -22 -16 -123 -26 -225 -19 -217 -14 -723 11 -997 17 -188 15 -196 -76 -376
-70 -138 -134 -233 -256 -382 -42 -51 -438 -467 -495 -520 -89 -84 -222 -201
-293 -260 -33 -28 -62 -53 -65 -56 -3 -3 -52 -41 -109 -85 -57 -43 -144 -110
-193 -149 -130 -101 -323 -223 -385 -242 -46 -15 -60 -15 -104 -4 -29 8 -63
20 -78 27 -14 8 -29 14 -33 14 -4 0 -38 14 -75 31 -38 17 -122 55 -188 84 -66
29 -145 64 -175 79 -30 14 -98 43 -150 64 -176 72 -466 196 -615 263 -22 10
-69 29 -105 42 -36 13 -94 38 -130 54 -36 17 -76 34 -90 38 -14 4 -37 16 -52
26 -14 11 -29 19 -32 19 -12 0 -112 69 -132 91 -37 41 -76 132 -136 319 -79
248 -143 402 -220 533 -24 40 -50 88 -59 107 -43 94 -140 245 -232 362 -56 72
-109 140 -117 152 -8 11 -30 39 -50 62 -19 22 -46 56 -60 74 -14 18 -36 45
-51 59 -14 14 -30 38 -37 53 -21 51 -51 234 -57 358 -6 113 7 365 19 377 10
10 52 -7 83 -34 17 -16 38 -49 47 -76 28 -82 44 -105 162 -227 l114 -117 -35
-107 c-19 -59 -39 -131 -43 -161 l-9 -54 75 -68 c41 -37 92 -85 113 -106 45
-45 74 -46 36 -2 -13 17 -41 62 -62 100 -35 65 -37 74 -32 135 6 73 33 170 47
170 6 0 30 -16 56 -35 25 -19 72 -50 105 -70 33 -19 69 -44 81 -55 12 -11 25
-20 29 -20 19 0 102 -65 124 -98 16 -24 25 -31 25 -19 0 22 17 22 75 -4 25
-11 49 -19 51 -16 2 2 -16 26 -41 53 -55 60 -95 125 -95 154 0 19 4 21 27 15
15 -3 54 -19 87 -35 34 -15 87 -40 119 -54 31 -14 60 -32 63 -40 7 -17 -13
-46 -99 -153 -32 -40 -65 -73 -72 -73 -8 0 -31 21 -51 48 -54 67 -56 69 -49
50 41 -107 239 -373 326 -437 45 -34 110 -40 137 -13 33 33 55 125 48 192 -6
53 -44 203 -61 243 -10 23 10 22 46 -4 43 -31 35 -10 -21 53 -42 47 -61 78
-47 78 9 0 130 -46 174 -66 56 -25 103 -39 103 -31 0 3 -46 27 -103 55 -114
56 -358 216 -452 296 -33 28 -104 87 -158 130 -55 44 -103 91 -108 105 -6 13
-13 114 -16 224 -5 169 -4 199 8 195 12 -4 59 -63 127 -157 95 -135 373 -454
488 -561 153 -143 431 -317 644 -403 47 -19 119 -51 160 -70 122 -57 542 -191
581 -185 17 2 3 16 -63 60 -74 50 -156 128 -239 227 -26 30 -49 41 -49 22 0
-12 87 -120 149 -184 39 -41 42 -47 24 -47 -39 0 -264 80 -468 166 -237 99
-303 133 -450 229 -60 39 -123 79 -139 89 -16 10 -56 44 -90 76 -33 32 -77 73
-97 92 -34 30 -76 76 -184 199 -22 25 -87 108 -145 183 -58 76 -128 168 -157
204 -29 37 -75 110 -103 164 -56 108 -70 166 -115 488 -76 554 -85 925 -25
1142 20 74 84 212 138 301 19 31 33 60 29 63 -6 6 -67 -91 -98 -156 -126 -269
-124 -258 -124 -620 1 -355 16 -517 86 -939 20 -120 37 -191 55 -230 26 -55
26 -60 28 -296 2 -132 8 -282 14 -333 13 -98 56 -227 116 -348 19 -38 33 -70
32 -72 -14 -14 -244 129 -395 246 -47 36 -137 118 -200 181 -135 137 -162 185
-192 348 -26 141 -43 581 -36 953 5 289 17 378 66 498 11 26 30 75 43 110 12
34 26 62 30 62 5 0 8 7 8 15 0 26 -17 17 -33 -17 -74 -159 -94 -212 -123 -333
-14 -57 -17 -142 -21 -465 -3 -217 -6 -397 -8 -398 -2 -2 -20 2 -40 9 -31 12
-40 11 -71 -6 -52 -28 -164 -151 -201 -221 -44 -83 -89 -215 -102 -299 -15
-103 -18 -178 -5 -182 5 -2 21 22 34 54 17 42 44 78 99 133 74 73 163 132 177
117 4 -4 2 -47 -4 -96 -21 -159 -10 -438 24 -588 13 -60 74 -232 108 -307 20
-44 34 -81 31 -84 -6 -6 -95 63 -199 154 -86 75 -155 151 -251 278 -321 421
-455 664 -455 822 0 65 47 289 96 459 76 264 109 379 131 455 13 47 28 94 32
105 5 11 21 56 36 100 24 71 86 199 154 320 l23 40 -35 -38 c-50 -55 -148
-260 -200 -422 -138 -426 -267 -911 -267 -1007 0 -60 46 -200 101 -308 81
-156 125 -224 259 -396 63 -81 136 -175 161 -208 55 -72 225 -241 325 -323 83
-67 172 -133 191 -140 15 -6 18 23 4 31 -10 6 -95 146 -125 204 -23 45 -11 54
22 16 63 -72 298 -376 314 -406 26 -47 11 -54 -74 -34 -110 27 -282 124 -377
213 -42 40 -79 73 -83 73 -11 0 -10 -28 1 -34 5 -4 19 -36 30 -71 33 -101 92
-221 155 -317 32 -49 62 -90 67 -94 17 -10 9 -24 -13 -24 -47 0 -229 65 -382
137 -317 148 -360 208 -532 733 -80 248 -85 260 -93 260 -11 0 -1 -250 15
-375 8 -66 26 -163 40 -215 28 -105 107 -309 149 -383 15 -26 25 -50 23 -52
-16 -16 -311 220 -445 357 -148 151 -358 453 -430 618 l-28 65 2 290 c0 160 6
344 12 410 27 307 42 452 66 605 14 91 24 176 22 190 l-3 25 -11 -25 c-6 -14
-23 -108 -37 -210 -43 -301 -46 -310 -90 -425 -24 -60 -54 -146 -66 -190 -12
-44 -26 -90 -31 -102 -4 -12 -18 -82 -30 -155 -39 -240 -18 -446 67 -671 15
-38 24 -70 22 -72 -12 -12 -222 209 -287 302 -38 55 -51 64 -51 36 0 -37 226
-290 340 -381 25 -20 53 -45 64 -55 29 -29 30 -13 2 35 -41 70 -93 217 -121
343 -39 175 -35 378 11 575 28 119 75 258 91 272 15 12 15 -4 7 -187 -5 -110
-9 -288 -9 -395 0 -245 3 -255 138 -483 71 -119 314 -433 352 -455 8 -4 37
-29 67 -57 136 -128 280 -242 368 -293 25 -14 64 -41 88 -60 67 -53 68 -33 2
43 -119 136 -239 446 -270 690 -6 50 -13 109 -16 132 -3 23 0 44 5 48 13 8 33
-41 77 -184 38 -126 45 -144 110 -278 56 -114 121 -188 232 -259 45 -30 85
-54 88 -54 3 0 45 -20 92 -44 109 -54 232 -100 358 -131 142 -37 196 -32 118
10 -46 25 -172 199 -221 305 -19 41 -39 83 -44 92 -5 10 -9 27 -9 39 0 18 7
15 67 -26 101 -71 224 -134 295 -151 149 -37 136 -29 153 -87 22 -73 48 -245
41 -271 -3 -12 -27 -38 -53 -58 -26 -21 -61 -49 -78 -64 -87 -77 -263 -224
-313 -262 -31 -24 -70 -56 -87 -72 -16 -16 -51 -43 -77 -62 -419 -297 -566
-480 -683 -848 -26 -80 -57 -174 -70 -210 -85 -232 -344 -1109 -345 -1166 0
-19 64 -153 80 -164 3 -3 40 -59 80 -125 98 -159 317 -432 348 -434 9 -1 12
28 12 114 0 365 74 1071 136 1295 23 84 29 92 143 204 325 319 438 447 551
626 39 61 70 112 70 114 0 1 27 51 60 110 33 59 60 110 60 113 0 2 12 30 26
61 105 228 157 445 171 712 5 108 -13 291 -33 345 -12 31 16 12 36 -25 11 -19
49 -89 86 -155 70 -126 98 -194 170 -413 89 -268 122 -342 181 -400 30 -28 60
-52 67 -52 8 0 19 -7 27 -16 16 -19 178 -101 276 -139 40 -15 80 -36 89 -46
23 -26 43 -202 44 -381 0 -298 -72 -545 -286 -973 -66 -131 -109 -202 -190
-310 -119 -159 -132 -180 -150 -250 -14 -52 -20 -487 -8 -519 6 -15 214 -16
2258 -16 l2251 0 22 68 c11 37 30 92 41 122 132 361 196 698 233 1225 13 178
2 356 -25 435 -12 35 -120 211 -208 337 -43 63 -221 416 -253 503 -15 41 -36
93 -45 115 -20 44 -95 275 -103 315 -3 14 -13 45 -21 68 -50 135 -115 449
-145 702 -23 198 -43 786 -30 910 4 41 13 136 19 210 14 170 29 260 43 260 17
0 137 -128 206 -220 34 -44 61 -83 61 -85 0 -2 20 -35 44 -72 61 -96 123 -221
142 -292 33 -119 49 -60 47 182 0 97 1 177 3 177 19 0 108 -319 129 -458 9
-59 20 -134 25 -167 9 -61 0 -212 -19 -295 -9 -41 -6 -70 8 -70 3 0 31 34 61
76 30 41 67 92 82 112 15 20 44 65 64 100 21 34 43 62 50 62 6 0 25 -42 42
-92 54 -166 165 -386 256 -507 23 -30 55 -75 73 -100 100 -143 380 -399 548
-501 78 -48 96 -63 119 -108 30 -59 118 -360 146 -502 11 -57 27 -129 35 -160
39 -155 108 -653 125 -900 6 -85 18 -234 26 -330 9 -96 16 -258 16 -360 1
-162 -2 -195 -22 -265 -38 -137 -131 -300 -261 -457 l-31 -38 89 0 c49 0 93 4
98 9 6 5 116 63 245 129 129 65 298 154 374 196 77 42 143 76 148 76 4 0 8
971 8 2158 l0 2158 -32 12 c-32 11 -66 37 -198 147 -126 105 -189 144 -237
146 -15 0 -138 -6 -271 -15 l-244 -16 -31 22 c-166 117 -435 328 -531 418 -65
61 -119 93 -176 105 -19 4 -41 12 -47 17 -18 14 -16 198 2 368 23 206 31 448
15 495 -18 57 -71 142 -171 274 -147 195 -172 227 -216 270 -81 79 -37 74 47
-5 25 -23 56 -52 69 -63 67 -58 134 -127 206 -212 44 -52 85 -98 91 -104 35
-29 115 -154 154 -239 46 -98 67 -121 57 -63 -51 307 -103 589 -127 697 -40
178 -120 431 -175 550 -23 52 -57 126 -74 163 l-31 69 27 46 c15 26 37 61 49
77 38 51 85 161 111 258 21 82 25 125 33 387 20 663 21 740 11 740 -6 0 -11
-3 -11 -7z m-2607 -3218 c87 -91 157 -173 157 -181 0 -19 -71 -113 -85 -113
-19 0 -101 150 -199 362 -33 72 -41 97 -33 97 2 0 74 -74 160 -165z m-763
-282 c0 -7 5 -13 10 -13 6 0 10 -6 10 -13 0 -7 22 -38 50 -69 57 -64 185 -146
358 -228 65 -31 112 -60 112 -68 0 -8 -24 -39 -54 -70 -30 -32 -90 -95 -134
-141 l-80 -85 -34 55 c-37 57 -149 289 -193 399 -15 36 -37 105 -51 155 -14
49 -29 94 -34 99 -4 4 -6 15 -3 23 5 12 10 11 24 -8 10 -13 19 -30 19 -36z
m-420 -651 c92 -93 213 -204 268 -246 98 -76 123 -103 103 -115 -10 -7 -110
-93 -181 -157 -25 -22 -73 -62 -108 -89 -54 -42 -65 -47 -77 -34 -35 35 -113
282 -145 459 -6 36 -15 83 -20 105 -29 140 -35 245 -14 245 4 0 82 -76 174
-168z m1739 -128 c18 -52 26 -262 12 -349 -20 -131 -58 -232 -104 -281 -36
-38 -47 -44 -83 -44 -35 0 -47 6 -72 34 -32 37 -97 164 -107 212 -18 77 -17
82 3 93 11 6 22 7 26 4 3 -3 6 -2 6 4 0 5 16 18 35 29 19 10 35 22 35 26 0 5
9 8 19 8 20 0 31 -18 31 -51 0 -24 38 -141 50 -153 6 -5 16 -4 25 4 14 11 16
28 10 99 -3 47 -11 121 -17 164 -9 61 -9 83 0 98 7 10 18 29 25 42 6 12 14 24
18 27 3 3 15 22 28 43 13 21 28 36 35 34 6 -2 17 -21 25 -43z m-2799 -719 c0
-7 9 -20 21 -31 62 -56 105 -266 69 -334 -34 -64 -154 23 -226 166 -35 69 -35
71 -20 107 25 60 37 51 96 -71 41 -86 50 -95 74 -86 20 8 20 31 1 68 -8 15
-15 34 -15 41 0 7 -11 37 -25 67 -24 52 -32 98 -18 111 8 9 43 -22 43 -38z
m3588 -627 c6 -24 23 -95 38 -158 15 -63 41 -169 59 -234 l32 -119 -61 -89
c-34 -48 -86 -126 -116 -172 -30 -46 -107 -162 -171 -258 -63 -95 -122 -183
-130 -194 -24 -37 -240 -355 -298 -440 -31 -44 -90 -126 -131 -182 -41 -56
-102 -144 -135 -197 -33 -52 -86 -129 -117 -170 -32 -41 -58 -79 -58 -85 0 -5
-6 -10 -13 -10 -12 0 -84 120 -182 305 -48 90 -115 249 -115 272 0 21 24 15
105 -23 104 -49 159 -96 234 -197 35 -48 71 -87 79 -87 9 0 12 6 8 16 -14 38
-86 134 -142 191 -51 52 -81 72 -170 114 -212 99 -274 130 -274 138 0 11 93
90 195 167 98 73 223 173 264 212 14 13 44 38 65 56 176 140 491 459 712 721
118 140 206 274 263 399 16 36 34 66 39 66 5 0 14 -19 20 -42z m172 -645 c9
-29 19 -55 23 -59 4 -4 7 -15 7 -24 0 -10 10 -39 22 -66 23 -52 24 -79 4 -100
-7 -7 -50 -82 -96 -166 -72 -133 -214 -373 -230 -388 -3 -3 -10 -14 -16 -25
-38 -70 -64 -114 -85 -146 -13 -20 -62 -98 -109 -174 -81 -131 -223 -348 -341
-520 -145 -211 -229 -335 -263 -393 -21 -35 -91 -138 -155 -230 -64 -92 -138
-202 -164 -244 -27 -43 -52 -80 -57 -83 -13 -8 -77 91 -145 221 -64 123 -64
119 -4 195 16 20 29 41 29 47 0 5 10 20 23 33 28 30 77 96 77 104 0 3 4 11 10
18 5 7 32 40 59 73 49 61 66 85 180 259 33 50 76 113 98 140 21 28 63 88 93
135 30 47 107 155 170 240 102 136 348 498 359 525 2 6 12 19 22 30 10 11 48
67 86 125 37 58 96 143 129 190 34 47 69 101 79 120 34 67 150 220 165 217 8
-1 21 -25 30 -54z m-1629 -1043 c5 -8 27 -60 49 -115 57 -140 180 -386 258
-516 l22 -36 -41 -64 c-23 -35 -45 -65 -50 -67 -5 -2 -9 -9 -9 -16 0 -11 -54
-93 -70 -106 -4 -3 -21 -27 -40 -55 -63 -94 -154 -215 -162 -215 -41 0 -398
942 -402 1059 l-1 43 120 70 c66 39 134 78 150 88 30 18 30 18 99 -19 38 -20
73 -43 77 -51z"/>
<path d="M9240 9262 c0 -13 31 -38 70 -56 l35 -17 -44 41 c-42 39 -61 49 -61
32z"/>
<path d="M7074 9192 c3 -4 33 -30 68 -56 41 -31 50 -36 27 -15 -68 64 -111 96
-95 71z"/>
<path d="M9361 9172 c15 -24 68 -56 77 -47 8 7 -17 28 -61 51 -26 14 -27 14
-16 -4z"/>
<path d="M2172 9100 c0 -14 2 -19 5 -12 2 6 2 18 0 25 -3 6 -5 1 -5 -13z"/>
<path d="M7210 9082 c0 -6 12 -17 26 -27 14 -9 33 -24 43 -33 9 -9 70 -64 134
-121 65 -57 116 -105 113 -108 -3 -3 -26 2 -51 10 -25 9 -43 12 -40 6 4 -5 10
-9 15 -9 18 0 187 -88 218 -112 8 -8 12 -6 12 3 -1 11 -161 154 -288 255 -27
22 -27 22 -10 58 10 20 13 36 8 36 -6 0 -10 -4 -10 -10 0 -5 -9 -14 -21 -20
-15 -9 -25 -8 -39 2 -80 59 -110 78 -110 70z"/>
<path d="M5935 9071 c-89 -6 -89 -6 65 -13 85 -4 170 -11 189 -14 26 -6 32 -4
26 6 -4 7 -2 16 6 21 15 9 -133 9 -286 0z"/>
<path d="M6273 9073 c15 -2 37 -2 50 0 12 2 0 4 -28 4 -27 0 -38 -2 -22 -4z"/>
<path d="M6423 9063 c9 -2 23 -2 30 0 6 3 -1 5 -18 5 -16 0 -22 -2 -12 -5z"/>
<path d="M9582 9011 c2 -4 53 -50 113 -100 61 -51 132 -111 160 -134 27 -23
68 -59 91 -79 43 -40 58 -47 52 -25 -3 14 -94 99 -168 157 -24 19 -58 47 -75
61 -43 38 -165 129 -171 129 -3 0 -4 -4 -2 -9z"/>
<path d="M6548 8983 c7 -3 16 -2 19 1 4 3 -2 6 -13 5 -11 0 -14 -3 -6 -6z"/>
<path d="M6588 8973 c6 -2 18 -2 25 0 6 3 1 5 -13 5 -14 0 -19 -2 -12 -5z"/>
<path d="M2220 8966 c0 -14 21 -46 30 -46 6 0 10 10 10 22 0 12 -3 18 -7 15
-3 -4 -12 -2 -20 4 -7 6 -13 8 -13 5z"/>
<path d="M810 8953 c-14 -3 -29 -9 -35 -14 -10 -10 16 -7 85 10 34 9 34 9 5 9
-16 -1 -41 -3 -55 -5z"/>
<path d="M7099 8930 c46 -17 86 -28 89 -25 3 2 -1 6 -9 9 -8 2 -40 13 -72 25
-33 11 -66 21 -75 21 -10 -1 21 -14 67 -30z"/>
<path d="M640 8910 c-36 -11 -82 -19 -103 -20 -23 0 -36 -4 -32 -10 3 -5 18
-10 33 -10 28 0 167 42 179 53 10 10 -5 8 -77 -13z"/>
<path d="M6805 8920 c11 -5 27 -9 35 -9 9 0 8 4 -5 9 -11 5 -27 9 -35 9 -9 0
-8 -4 5 -9z"/>
<path d="M6870 8900 c8 -5 26 -10 39 -10 32 0 24 6 -19 14 -25 4 -31 3 -20 -4z"/>
<path d="M230 8885 c-11 -13 -10 -14 3 -9 9 3 64 9 124 13 l108 8 -111 2 c-89
1 -114 -2 -124 -14z"/>
<path d="M7200 8895 c0 -2 18 -9 40 -15 32 -9 40 -15 40 -33 0 -30 -18 -47
-49 -47 -35 0 -17 -13 64 -44 107 -42 134 -56 215 -109 72 -47 73 -48 40 -14
-19 20 -78 56 -130 82 -129 62 -125 59 -128 84 -4 27 12 49 41 53 15 2 2 11
-42 26 -63 21 -91 27 -91 17z"/>
<path d="M6950 8880 c8 -5 22 -9 30 -9 10 0 8 3 -5 9 -27 12 -43 12 -25 0z"/>
<path d="M1730 8875 c0 -5 5 -17 10 -25 5 -8 10 -10 10 -5 0 6 -5 17 -10 25
-5 8 -10 11 -10 5z"/>
<path d="M190 8845 c-10 -12 -11 -54 -7 -173 7 -199 30 -358 88 -600 16 -67
29 -132 29 -142 0 -20 -52 -104 -169 -278 -105 -156 -130 -197 -130 -221 -1
-18 10 -7 41 45 22 38 60 94 82 124 23 30 67 93 97 140 137 208 217 332 279
430 37 58 93 145 126 193 32 49 64 96 69 105 6 9 27 39 48 66 20 27 37 54 37
60 -1 20 -70 -66 -147 -184 -209 -317 -285 -430 -293 -435 -18 -11 -30 33 -84
285 -35 165 -58 375 -54 496 1 57 2 104 2 104 -1 0 -7 -7 -14 -15z"/>
<path d="M7058 8843 c7 -3 16 -2 19 1 4 3 -2 6 -13 5 -11 0 -14 -3 -6 -6z"/>
<path d="M7380 8835 c14 -8 30 -14 35 -14 6 0 -1 6 -15 14 -14 8 -29 14 -35
14 -5 0 1 -6 15 -14z"/>
<path d="M7125 8820 c11 -5 27 -9 35 -9 13 -1 13 0 0 9 -8 5 -24 9 -35 9 l-20
0 20 -9z"/>
<path d="M1113 8751 c-45 -3 -85 -10 -90 -15 -4 -5 16 -6 47 -2 30 3 147 9
260 12 206 7 371 -4 452 -28 46 -13 58 -5 33 22 -14 15 -21 17 -32 9 -10 -9
-28 -9 -70 0 -58 11 -446 13 -600 2z"/>
<path d="M897 8706 c-57 -24 -75 -39 -98 -81 -7 -11 5 -5 27 16 40 36 96 65
155 79 l34 8 -30 1 c-16 0 -56 -10 -88 -23z"/>
<path d="M610 7599 c-18 -19 -59 -66 -91 -106 -33 -39 -79 -83 -101 -98 -176
-116 -445 -391 -414 -422 3 -4 14 4 23 16 45 65 122 148 199 216 134 116 138
101 23 -75 -93 -142 -129 -196 -199 -295 -27 -38 -50 -79 -50 -90 0 -36 15
-15 257 350 80 121 159 236 174 255 16 19 56 69 90 110 33 41 68 84 76 95 9
11 25 30 36 42 11 13 18 26 14 29 -3 4 -20 -9 -37 -27z"/>
<path d="M1 5220 c0 -29 13 -85 39 -157 39 -110 122 -287 141 -298 21 -14 6
35 -42 134 -45 94 -96 225 -127 331 l-10 35 -1 -45z"/>
<path d="M6231 4261 c-40 -38 -87 -75 -104 -81 -18 -7 -47 -19 -66 -27 -52
-24 -209 -50 -395 -67 -161 -15 -186 -20 -174 -31 6 -7 323 23 438 41 128 20
232 71 318 156 53 52 72 78 59 78 -2 0 -36 -31 -76 -69z"/>
<path d="M3055 3820 c21 -34 110 -90 160 -100 64 -13 194 -1 340 32 122 28 88
36 -44 10 -264 -52 -297 -49 -406 33 -46 36 -61 43 -50 25z"/>
<path d="M4191 3577 c-6 -15 -14 -39 -17 -54 -4 -14 -19 -45 -33 -70 -53 -90
-52 -86 -33 -106 9 -10 44 -32 77 -49 33 -16 62 -32 65 -36 11 -15 82 -64 86
-59 10 10 -12 35 -87 102 -43 39 -79 74 -79 78 0 5 9 21 20 37 10 15 25 48 32
73 10 39 10 51 -4 79 l-16 33 -11 -28z"/>
<path d="M4570 2741 c0 -4 66 -11 148 -14 86 -3 170 -12 202 -21 63 -18 80
-20 80 -7 0 12 -19 18 -104 36 -77 16 -326 21 -326 6z"/>
</g>
</svg>
